STARTFONT 2.1
FONT -Monotype-Book Antiqua-Bold-I-Normal--18-180-75-75-P-101-iso8859-4
SIZE 18 75 75
FONTBOUNDINGBOX 24 22 -4 -5

STARTPROPERTIES 24
FOUNDRY "Monotype"
FAMILY_NAME "Book Antiqua"
WEIGHT_NAME "Bold"
SLANT "I"
SETWIDTH_NAME "Normal"
ADD_STYLE_NAME ""
PIXEL_SIZE 18
POINT_SIZE 180
RESOLUTION_X 75
RESOLUTION_Y 75
SPACING "P"
AVERAGE_WIDTH 101
CHARSET_REGISTRY "iso8859"
CHARSET_ENCODING "4"
FACE_NAME "Book Antiqua Bold Italic ISO Latin4"
_DEC_DEVICE_FONTNAMES "PS=bookantiqua-bit-lat4"
COPYRIGHT "Copyright (c) 1994 Monotype Typography Ltd."
CAP_HEIGHT 16
X_HEIGHT 11
WEIGHT 10
QUAD_WIDTH 12
DEFAULT_CHAR 160
FONT_DESCENT 6
FONT_ASCENT 18
ENDPROPERTIES

CHARS 191

STARTCHAR space
ENCODING 32
SWIDTH 250 0
DWIDTH 5 0
BBX 0 0 0 0
BITMAP
ENDCHAR

STARTCHAR exclam
ENCODING 33
SWIDTH 333 0
DWIDTH 6 0
BBX 5 14 1 0
BITMAP
18
38
38
38
30
70
70
60
60
40
00
E0
E0
E0
ENDCHAR

STARTCHAR quotedbl
ENCODING 34
SWIDTH 500 0
DWIDTH 10 0
BBX 7 6 2 7
BITMAP
44
EE
EE
44
44
44
ENDCHAR

STARTCHAR numbersign
ENCODING 35
SWIDTH 606 0
DWIDTH 12 0
BBX 12 13 0 0
BITMAP
0CC0
0CC0
0CC0
0CC0
7FF0
1980
1980
1980
FFE0
3300
3300
3300
3300
ENDCHAR

STARTCHAR dollar
ENCODING 36
SWIDTH 500 0
DWIDTH 10 0
BBX 9 17 1 -2
BITMAP
0200
0200
0F80
1480
3480
7400
7400
7C00
3F00
0F80
0B80
0B80
8B00
8A00
FC00
1000
1000
ENDCHAR

STARTCHAR percent
ENCODING 37
SWIDTH 889 0
DWIDTH 17 0
BBX 14 13 2 0
BITMAP
3860
6C40
CCC0
CC80
CD80
CD38
DB6C
72CC
06CC
04CC
0CCC
08D8
1870
ENDCHAR

STARTCHAR ampersand
ENCODING 38
SWIDTH 833 0
DWIDTH 16 0
BBX 14 13 1 0
BITMAP
0780
1D00
3900
3808
1804
0C0C
31F8
63C0
E260
E060
E040
7180
3E00
ENDCHAR

STARTCHAR quoteright
ENCODING 39
SWIDTH 278 0
DWIDTH 5 0
BBX 4 5 1 9
BITMAP
30
30
60
40
80
ENDCHAR

STARTCHAR parenleft
ENCODING 40
SWIDTH 333 0
DWIDTH 6 0
BBX 7 19 0 -5
BITMAP
02
04
08
18
30
70
60
E0
E0
E0
E0
E0
E0
E0
60
70
30
10
08
ENDCHAR

STARTCHAR parenright
ENCODING 41
SWIDTH 333 0
DWIDTH 6 0
BBX 7 19 -1 -5
BITMAP
20
10
18
1C
0C
0E
0E
0E
0E
0E
0E
0E
0C
1C
18
30
20
40
80
ENDCHAR

STARTCHAR asterisk
ENCODING 42
SWIDTH 444 0
DWIDTH 8 0
BBX 6 7 1 7
BITMAP
58
D0
74
3C
F0
98
10
ENDCHAR

STARTCHAR plus
ENCODING 43
SWIDTH 606 0
DWIDTH 12 0
BBX 10 10 1 1
BITMAP
0C00
0C00
0C00
0C00
FFC0
FFC0
0C00
0C00
0C00
0C00
ENDCHAR

STARTCHAR comma
ENCODING 44
SWIDTH 250 0
DWIDTH 5 0
BBX 4 5 0 -3
BITMAP
30
70
60
40
80
ENDCHAR

STARTCHAR minus
ENCODING 45
SWIDTH 606 0
DWIDTH 12 0
BBX 10 2 1 5
BITMAP
FFC0
FFC0
ENDCHAR

STARTCHAR period
ENCODING 46
SWIDTH 250 0
DWIDTH 5 0
BBX 3 3 1 0
BITMAP
E0
E0
E0
ENDCHAR

STARTCHAR slash
ENCODING 47
SWIDTH 315 0
DWIDTH 6 0
BBX 11 19 -2 -5
BITMAP
0060
0060
00C0
00C0
0180
0180
0300
0300
0600
0600
0C00
0C00
1800
1800
3000
3000
6000
6000
C000
ENDCHAR

STARTCHAR zero
ENCODING 48
SWIDTH 500 0
DWIDTH 10 0
BBX 8 13 1 0
BITMAP
0E
37
67
67
E7
E7
E7
E7
E7
E6
E6
EC
70
ENDCHAR

STARTCHAR one
ENCODING 49
SWIDTH 500 0
DWIDTH 10 0
BBX 7 13 2 0
BITMAP
04
1C
7C
1C
1C
1C
1C
38
38
38
38
38
FE
ENDCHAR

STARTCHAR two
ENCODING 50
SWIDTH 500 0
DWIDTH 10 0
BBX 8 13 1 0
BITMAP
1E
37
47
07
07
07
06
0C
08
10
30
7F
FE
ENDCHAR

STARTCHAR three
ENCODING 51
SWIDTH 500 0
DWIDTH 10 0
BBX 8 13 1 0
BITMAP
1E
37
47
07
06
3C
06
07
07
07
87
CE
78
ENDCHAR

STARTCHAR four
ENCODING 52
SWIDTH 500 0
DWIDTH 10 0
BBX 10 13 0 0
BITMAP
0180
0380
0780
0B80
1700
2700
4700
8700
FFC0
0E00
0E00
0E00
3F80
ENDCHAR

STARTCHAR five
ENCODING 53
SWIDTH 500 0
DWIDTH 10 0
BBX 9 13 1 0
BITMAP
3F80
3F00
2000
2000
4000
7C00
4E00
0700
0700
0700
8700
CE00
7C00
ENDCHAR

STARTCHAR six
ENCODING 54
SWIDTH 500 0
DWIDTH 10 0
BBX 8 13 1 0
BITMAP
07
1C
30
70
60
EE
F7
E7
E7
E7
66
6C
38
ENDCHAR

STARTCHAR seven
ENCODING 55
SWIDTH 500 0
DWIDTH 10 0
BBX 9 13 1 0
BITMAP
7F80
FF80
0180
0300
0200
0600
0C00
0C00
1800
3800
3000
7000
6000
ENDCHAR

STARTCHAR eight
ENCODING 56
SWIDTH 500 0
DWIDTH 10 0
BBX 9 13 1 0
BITMAP
0F00
3B80
7180
7380
7300
3C00
1E00
2700
6700
C700
C700
EE00
7800
ENDCHAR

STARTCHAR nine
ENCODING 57
SWIDTH 500 0
DWIDTH 10 0
BBX 8 13 1 0
BITMAP
1C
36
66
E7
E7
E7
EF
77
06
0E
0C
38
E0
ENDCHAR

STARTCHAR colon
ENCODING 58
SWIDTH 250 0
DWIDTH 5 0
BBX 5 9 0 0
BITMAP
38
38
38
00
00
00
E0
E0
E0
ENDCHAR

STARTCHAR semicolon
ENCODING 59
SWIDTH 250 0
DWIDTH 5 0
BBX 6 12 -1 -3
BITMAP
1C
1C
1C
00
00
00
00
30
70
60
40
80
ENDCHAR

STARTCHAR less
ENCODING 60
SWIDTH 606 0
DWIDTH 12 0
BBX 10 9 1 2
BITMAP
01C0
0780
1E00
7800
E000
7800
1E00
0780
01C0
ENDCHAR

STARTCHAR equal
ENCODING 61
SWIDTH 606 0
DWIDTH 12 0
BBX 10 5 1 4
BITMAP
FFC0
FFC0
0000
FFC0
FFC0
ENDCHAR

STARTCHAR greater
ENCODING 62
SWIDTH 606 0
DWIDTH 12 0
BBX 10 9 1 2
BITMAP
E000
7800
1E00
0780
01C0
0780
1E00
7800
E000
ENDCHAR

STARTCHAR question
ENCODING 63
SWIDTH 444 0
DWIDTH 8 0
BBX 7 14 1 0
BITMAP
7C
DE
8E
8E
0E
1C
18
30
60
40
00
E0
E0
E0
ENDCHAR

STARTCHAR at
ENCODING 64
SWIDTH 833 0
DWIDTH 16 0
BBX 14 15 1 -2
BITMAP
07C0
1830
2008
4368
46C4
8CC4
8CC4
99C4
9988
9AB0
4CC4
4004
2008
1830
07C0
ENDCHAR

STARTCHAR A
ENCODING 65
SWIDTH 722 0
DWIDTH 14 0
BBX 15 13 -1 0
BITMAP
0060
00E0
00E0
01F0
0170
0270
0470
0FF0
0838
1038
1038
2038
F8FE
ENDCHAR

STARTCHAR B
ENCODING 66
SWIDTH 667 0
DWIDTH 13 0
BBX 12 13 0 0
BITMAP
3FE0
0E70
0E70
0E70
1C70
1CE0
1FC0
1C60
1C70
3870
3870
38E0
FFC0
ENDCHAR

STARTCHAR C
ENCODING 67
SWIDTH 685 0
DWIDTH 13 0
BBX 12 13 1 0
BITMAP
07F0
1C20
3020
7020
E000
E000
E000
E000
E000
E000
F000
7840
1F80
ENDCHAR

STARTCHAR D
ENCODING 68
SWIDTH 778 0
DWIDTH 15 0
BBX 15 13 0 0
BITMAP
3FF8
0E1C
0E0E
0E0E
1C0E
1C0E
1C0E
1C0E
1C0C
381C
3818
3830
FFC0
ENDCHAR

STARTCHAR E
ENCODING 69
SWIDTH 611 0
DWIDTH 12 0
BBX 12 13 0 0
BITMAP
3FF0
0E10
0E10
0E00
1C00
1C00
1F80
1C00
1C00
3820
3820
3840
FFC0
ENDCHAR

STARTCHAR F
ENCODING 70
SWIDTH 556 0
DWIDTH 11 0
BBX 12 13 0 0
BITMAP
3FF0
0E10
0E10
0E00
1C00
1C00
1FC0
1C00
1C00
3800
3800
3800
FE00
ENDCHAR

STARTCHAR G
ENCODING 71
SWIDTH 778 0
DWIDTH 15 0
BBX 14 13 1 0
BITMAP
07F8
1C10
3010
7010
E000
E000
E000
E0FC
E030
E030
F060
78C0
1F00
ENDCHAR

STARTCHAR H
ENCODING 72
SWIDTH 778 0
DWIDTH 15 0
BBX 17 13 -1 0
BITMAP
3FBF80
0E0E00
0E0E00
0E0E00
1C1C00
1C1C00
1FFC00
1C1C00
1C1C00
383800
383800
383800
FCFE00
ENDCHAR

STARTCHAR I
ENCODING 73
SWIDTH 389 0
DWIDTH 7 0
BBX 9 13 -1 0
BITMAP
3F80
0E00
0E00
0E00
1C00
1C00
1C00
1C00
1C00
3800
3800
3800
FE00
ENDCHAR

STARTCHAR J
ENCODING 74
SWIDTH 389 0
DWIDTH 7 0
BBX 10 17 -2 -4
BITMAP
1FC0
0700
0700
0700
0E00
0E00
0E00
0E00
0E00
1C00
1C00
1C00
1800
1000
3000
2000
C000
ENDCHAR

STARTCHAR K
ENCODING 75
SWIDTH 722 0
DWIDTH 14 0
BBX 15 13 0 0
BITMAP
3FBE
0E18
0E30
0E60
1CC0
1F80
1F00
1F80
1D80
39C0
38E0
3870
FE78
ENDCHAR

STARTCHAR L
ENCODING 76
SWIDTH 611 0
DWIDTH 12 0
BBX 12 13 0 0
BITMAP
3F80
0E00
0E00
0E00
1C00
1C00
1C00
1C00
1C00
3810
3810
3820
FFE0
ENDCHAR

STARTCHAR M
ENCODING 77
SWIDTH 944 0
DWIDTH 18 0
BBX 20 13 -1 0
BITMAP
3E01F0
0E03C0
0E03C0
0E05C0
0F09C0
1F0B80
171380
13A380
13A380
23C700
21C700
218700
F89FC0
ENDCHAR

STARTCHAR N
ENCODING 78
SWIDTH 778 0
DWIDTH 15 0
BBX 17 13 -1 0
BITMAP
3C0F80
0E0200
0E0200
0F0200
138400
138400
11C400
10E400
20E800
207800
203800
203800
F81800
ENDCHAR

STARTCHAR O
ENCODING 79
SWIDTH 833 0
DWIDTH 16 0
BBX 14 13 1 0
BITMAP
07E0
1C38
301C
701C
601C
E01C
E01C
E01C
E018
E038
E030
70E0
1F80
ENDCHAR

STARTCHAR P
ENCODING 80
SWIDTH 667 0
DWIDTH 13 0
BBX 13 13 0 0
BITMAP
3FF0
0E78
0E38
0E38
1C38
1C30
1C60
1DC0
1C00
3800
3800
3800
FE00
ENDCHAR

STARTCHAR Q
ENCODING 81
SWIDTH 833 0
DWIDTH 16 0
BBX 14 17 1 -4
BITMAP
07E0
1C38
301C
701C
601C
E01C
E01C
E01C
E018
E038
E030
70E0
1F80
1C00
0788
01F8
0070
ENDCHAR

STARTCHAR R
ENCODING 82
SWIDTH 722 0
DWIDTH 14 0
BBX 14 13 0 0
BITMAP
3FF0
0E78
0E38
0E38
1C30
1C60
1F80
1DC0
1CC0
38E0
3860
3870
FE3C
ENDCHAR

STARTCHAR S
ENCODING 83
SWIDTH 556 0
DWIDTH 11 0
BBX 10 13 1 0
BITMAP
0FC0
1840
3040
7000
7000
7C00
3F00
0F80
0380
0380
8300
8600
FC00
ENDCHAR

STARTCHAR T
ENCODING 84
SWIDTH 611 0
DWIDTH 12 0
BBX 12 13 1 0
BITMAP
FFF0
8E20
8E20
0E00
1C00
1C00
1C00
1C00
1C00
3800
3800
3800
FE00
ENDCHAR

STARTCHAR U
ENCODING 85
SWIDTH 778 0
DWIDTH 15 0
BBX 15 13 1 0
BITMAP
FEFE
3838
3838
3838
7070
7070
7070
7070
E070
E0E0
E0E0
71E0
3EF8
ENDCHAR

STARTCHAR V
ENCODING 86
SWIDTH 667 0
DWIDTH 13 0
BBX 14 13 0 0
BITMAP
FE7C
3810
3820
3820
3840
1C40
1C80
1D00
1D00
0E00
0E00
0C00
0C00
ENDCHAR

STARTCHAR W
ENCODING 87
SWIDTH 1000 0
DWIDTH 19 0
BBX 20 13 0 0
BITMAP
FE31F0
383040
387040
387080
38B080
1C9880
1D1900
1D1900
1E1900
0E0E00
0C0E00
0C0C00
0C0C00
ENDCHAR

STARTCHAR X
ENCODING 88
SWIDTH 722 0
DWIDTH 13 0
BBX 15 13 -1 0
BITMAP
3FBE
0E18
0610
0720
0340
03C0
01C0
03C0
04E0
0860
1070
3030
FCFC
ENDCHAR

STARTCHAR Y
ENCODING 89
SWIDTH 611 0
DWIDTH 12 0
BBX 11 13 1 0
BITMAP
6020
F060
7080
3900
3B00
1A00
1E00
0E00
0E00
1C00
1C00
1C00
7F00
ENDCHAR

STARTCHAR Z
ENCODING 90
SWIDTH 667 0
DWIDTH 13 0
BBX 13 13 0 0
BITMAP
1FF8
1070
20E0
01C0
0380
0380
0700
0E00
1C00
1C00
3810
7020
FFE0
ENDCHAR

STARTCHAR bracketleft
ENCODING 91
SWIDTH 333 0
DWIDTH 6 0
BBX 8 19 0 -5
BITMAP
1F
1C
1C
1C
1C
38
38
38
38
38
70
70
70
70
70
E0
E0
E0
F8
ENDCHAR

STARTCHAR backslash
ENCODING 92
SWIDTH 606 0
DWIDTH 12 0
BBX 11 19 1 -5
BITMAP
C000
C000
6000
6000
3000
3000
1800
1800
0C00
0C00
0600
0600
0300
0300
0180
0180
00C0
00C0
0060
ENDCHAR

STARTCHAR bracketright
ENCODING 93
SWIDTH 333 0
DWIDTH 6 0
BBX 8 19 -1 -5
BITMAP
1F
07
07
07
0E
0E
0E
0E
0E
1C
1C
1C
1C
1C
38
38
38
38
F8
ENDCHAR

STARTCHAR asciicircum
ENCODING 94
SWIDTH 606 0
DWIDTH 12 0
BBX 10 8 1 5
BITMAP
0C00
1E00
1E00
3F00
3300
7380
6180
E1C0
ENDCHAR

STARTCHAR underscore
ENCODING 95
SWIDTH 500 0
DWIDTH 10 0
BBX 10 2 0 -3
BITMAP
FFC0
FFC0
ENDCHAR

STARTCHAR quoteleft
ENCODING 96
SWIDTH 278 0
DWIDTH 5 0
BBX 4 5 1 9
BITMAP
10
20
60
E0
C0
ENDCHAR

STARTCHAR a
ENCODING 97
SWIDTH 556 0
DWIDTH 11 0
BBX 10 9 1 0
BITMAP
0EC0
3B80
7380
7380
E380
E700
E700
EF40
7380
ENDCHAR

STARTCHAR b
ENCODING 98
SWIDTH 537 0
DWIDTH 10 0
BBX 8 14 1 0
BITMAP
18
F8
38
38
70
7E
77
77
E7
E7
E7
EE
EC
70
ENDCHAR

STARTCHAR c
ENCODING 99
SWIDTH 444 0
DWIDTH 9 0
BBX 9 9 1 0
BITMAP
0F80
3900
7100
6000
E000
E000
E000
7200
3C00
ENDCHAR

STARTCHAR d
ENCODING 100
SWIDTH 556 0
DWIDTH 11 0
BBX 10 14 1 0
BITMAP
00C0
07C0
01C0
01C0
01C0
0F80
3B80
7380
6380
E700
E700
E700
EF40
7380
ENDCHAR

STARTCHAR e
ENCODING 101
SWIDTH 444 0
DWIDTH 9 0
BBX 8 9 1 0
BITMAP
1E
37
67
E6
FC
E0
E0
F2
7C
ENDCHAR

STARTCHAR f
ENCODING 102
SWIDTH 333 0
DWIDTH 6 0
BBX 13 19 -4 -5
BITMAP
0078
00D0
01C0
01C0
01C0
0FF0
0380
0380
0380
0380
0300
0700
0700
0600
0600
0C00
0800
5800
E000
ENDCHAR

STARTCHAR g
ENCODING 103
SWIDTH 500 0
DWIDTH 10 0
BBX 12 14 0 -5
BITMAP
0FB0
19C0
39C0
39C0
3980
1E00
0C00
1800
3E00
7700
E380
C380
E700
7E00
ENDCHAR

STARTCHAR h
ENCODING 104
SWIDTH 556 0
DWIDTH 11 0
BBX 10 14 1 0
BITMAP
1800
F800
3800
3800
3800
7700
7B80
7380
7380
7700
E700
E700
E740
E380
ENDCHAR

STARTCHAR i
ENCODING 105
SWIDTH 333 0
DWIDTH 6 0
BBX 6 14 0 0
BITMAP
1C
1C
1C
00
00
18
F8
38
38
38
70
70
74
38
ENDCHAR

STARTCHAR j
ENCODING 106
SWIDTH 333 0
DWIDTH 6 0
BBX 8 19 -1 -5
BITMAP
07
07
07
00
00
06
3E
0E
0E
0E
1C
1C
1C
18
18
30
30
20
C0
ENDCHAR

STARTCHAR k
ENCODING 107
SWIDTH 556 0
DWIDTH 10 0
BBX 9 14 1 0
BITMAP
1800
F800
3800
3800
3800
7180
7300
7400
7800
7C00
EC00
EE00
E680
E300
ENDCHAR

STARTCHAR l
ENCODING 108
SWIDTH 333 0
DWIDTH 6 0
BBX 5 14 1 0
BITMAP
18
F8
38
38
38
70
70
70
70
E0
E0
E0
E8
70
ENDCHAR

STARTCHAR m
ENCODING 109
SWIDTH 833 0
DWIDTH 16 0
BBX 16 9 0 0
BITMAP
1BDC
FDEE
39CE
39CE
39CE
739C
739C
739D
738E
ENDCHAR

STARTCHAR n
ENCODING 110
SWIDTH 556 0
DWIDTH 11 0
BBX 11 9 0 0
BITMAP
1B80
FDC0
39C0
39C0
39C0
7380
7380
73A0
71C0
ENDCHAR

STARTCHAR o
ENCODING 111
SWIDTH 556 0
DWIDTH 11 0
BBX 9 9 1 0
BITMAP
1F00
3380
6380
6380
E380
E300
E300
E600
7C00
ENDCHAR

STARTCHAR p
ENCODING 112
SWIDTH 556 0
DWIDTH 12 0
BBX 10 14 1 -5
BITMAP
1980
FBC0
3DC0
39C0
39C0
71C0
7180
7300
7C00
7000
E000
E000
E000
C000
ENDCHAR

STARTCHAR q
ENCODING 113
SWIDTH 537 0
DWIDTH 10 0
BBX 9 14 1 -5
BITMAP
0D80
3B80
7380
7380
E380
E700
EF00
F700
6700
0700
0E00
0E00
0E00
0C00
ENDCHAR

STARTCHAR r
ENCODING 114
SWIDTH 389 0
DWIDTH 7 0
BBX 8 9 0 0
BITMAP
1B
FB
3C
38
38
70
70
70
70
ENDCHAR

STARTCHAR s
ENCODING 115
SWIDTH 444 0
DWIDTH 8 0
BBX 8 9 0 0
BITMAP
1F
31
71
78
3C
1E
8E
8C
F8
ENDCHAR

STARTCHAR t
ENCODING 116
SWIDTH 389 0
DWIDTH 7 0
BBX 8 13 0 0
BITMAP
04
0C
1C
1C
FF
38
38
38
70
70
70
74
38
ENDCHAR

STARTCHAR u
ENCODING 117
SWIDTH 556 0
DWIDTH 11 0
BBX 11 9 0 0
BITMAP
19C0
F9C0
39C0
39C0
7380
7380
7380
77A0
3BC0
ENDCHAR

STARTCHAR v
ENCODING 118
SWIDTH 556 0
DWIDTH 10 0
BBX 10 9 0 0
BITMAP
7880
99C0
10C0
30C0
7080
7180
7100
7200
3C00
ENDCHAR

STARTCHAR w
ENCODING 119
SWIDTH 833 0
DWIDTH 16 0
BBX 15 9 1 0
BITMAP
78C4
99CE
11C6
31C6
7384
738C
7388
7590
38E0
ENDCHAR

STARTCHAR x
ENCODING 120
SWIDTH 500 0
DWIDTH 10 0
BBX 10 9 0 0
BITMAP
30C0
7980
BA00
1C00
1C00
0E00
1E40
6F80
C700
ENDCHAR

STARTCHAR y
ENCODING 121
SWIDTH 556 0
DWIDTH 11 0
BBX 11 14 0 -5
BITMAP
3860
FCE0
1CE0
1CE0
39C0
39C0
3BC0
3D80
1980
0300
0300
4600
6800
7000
ENDCHAR

STARTCHAR z
ENCODING 122
SWIDTH 500 0
DWIDTH 9 0
BBX 9 9 0 0
BITMAP
3E80
5F00
0300
0600
0C00
1800
3000
7D00
BE00
ENDCHAR

STARTCHAR braceleft
ENCODING 123
SWIDTH 333 0
DWIDTH 6 0
BBX 8 19 0 -5
BITMAP
01
06
0C
0C
1C
1C
1C
18
20
40
60
30
30
70
70
E0
E0
C0
60
ENDCHAR

STARTCHAR bar
ENCODING 124
SWIDTH 606 0
DWIDTH 12 0
BBX 3 19 5 -5
BITMAP
E0
E0
E0
E0
E0
E0
E0
E0
E0
E0
E0
E0
E0
E0
E0
E0
E0
E0
E0
ENDCHAR

STARTCHAR braceright
ENCODING 125
SWIDTH 333 0
DWIDTH 6 0
BBX 8 19 -1 -5
BITMAP
06
03
07
07
0E
0E
0C
0C
06
02
04
18
38
38
38
30
30
60
80
ENDCHAR

STARTCHAR asciitilde
ENCODING 126
SWIDTH 606 0
DWIDTH 12 0
BBX 10 4 1 4
BITMAP
7040
FC40
9FC0
8780
ENDCHAR

STARTCHAR space
ENCODING 160
SWIDTH 250 0
DWIDTH 6 0
BBX 0 0 0 0
BITMAP
ENDCHAR

STARTCHAR Aogonek
ENCODING 161
SWIDTH 722 0
DWIDTH 14 0
BBX 15 15 -1 -2
BITMAP
0060
00E0
00E0
01F0
0170
0270
0470
0FF0
0838
1038
1038
2038
F8FE
0030
001E
ENDCHAR

STARTCHAR afii240
ENCODING 162
SWIDTH 500 0
DWIDTH 10 0
BBX 11 9 -1 0
BITMAP
3EE0
1840
1980
1B00
3E00
3600
6300
6380
F7E0
ENDCHAR

STARTCHAR Rcommaaccent
ENCODING 163
SWIDTH 722 0
DWIDTH 14 0
BBX 14 18 0 -5
BITMAP
3FF0
0E78
0E38
0E38
1C30
1C60
1F80
1DC0
1CC0
38E0
3860
3870
FE3C
0000
0300
0300
0200
0400
ENDCHAR

STARTCHAR currency
ENCODING 164
SWIDTH 606 0
DWIDTH 12 0
BBX 9 9 2 2
BITMAP
5D00
FF80
6300
C180
C180
C180
6300
FF80
5D00
ENDCHAR

STARTCHAR Itilde
ENCODING 165
SWIDTH 389 0
DWIDTH 7 0
BBX 9 16 -1 0
BITMAP
0680
0B00
0000
3F80
0E00
0E00
0E00
1C00
1C00
1C00
1C00
1C00
3800
3800
3800
FE00
ENDCHAR

STARTCHAR Lcommaaccent
ENCODING 166
SWIDTH 611 0
DWIDTH 12 0
BBX 12 18 0 -5
BITMAP
3F80
0E00
0E00
0E00
1C00
1C00
1C00
1C00
1C00
3810
3810
3820
FFE0
0000
0C00
0C00
0800
1000
ENDCHAR

STARTCHAR section
ENCODING 167
SWIDTH 556 0
DWIDTH 11 0
BBX 8 19 1 -5
BITMAP
1F
31
61
70
78
FC
DC
CE
C6
E6
76
7E
3E
1C
0C
0C
8C
98
F0
ENDCHAR

STARTCHAR hungarumlaut
ENCODING 168
SWIDTH 333 0
DWIDTH 6 0
BBX 9 2 0 10
BITMAP
7380
C600
ENDCHAR

STARTCHAR Scaron
ENCODING 169
SWIDTH 556 0
DWIDTH 11 0
BBX 10 16 1 0
BITMAP
0CC0
0780
0000
0FC0
1840
3040
7000
7000
7C00
3F00
0F80
0380
0380
8300
8600
FC00
ENDCHAR

STARTCHAR Emacron
ENCODING 170
SWIDTH 611 0
DWIDTH 12 0
BBX 12 15 0 0
BITMAP
07E0
0000
3FF0
0E10
0E10
0E00
1C00
1C00
1F80
1C00
1C00
3820
3820
3840
FFC0
ENDCHAR

STARTCHAR Gcommaaccent
ENCODING 171
SWIDTH 778 0
DWIDTH 15 0
BBX 14 18 1 -5
BITMAP
07F8
1C10
3010
7010
E000
E000
E000
E0FC
E030
E030
F060
78C0
1F00
0000
0C00
0C00
0800
1000
ENDCHAR

STARTCHAR afii237
ENCODING 172
SWIDTH 611 0
DWIDTH 12 0
BBX 12 13 1 0
BITMAP
FFF0
8E20
8E20
0E00
1C00
1C00
FF80
1C00
1C00
3800
3800
3800
FE00
ENDCHAR

STARTCHAR hyphen
ENCODING 173
SWIDTH 389 0
DWIDTH 7 0
BBX 6 2 1 4
BITMAP
FC
FC
ENDCHAR

STARTCHAR Zcaron
ENCODING 174
SWIDTH 667 0
DWIDTH 13 0
BBX 13 16 0 0
BITMAP
0330
01E0
0000
1FF8
1070
20E0
01C0
0380
0380
0700
0E00
1C00
1C00
3810
7020
FFE0
ENDCHAR

STARTCHAR macron
ENCODING 175
SWIDTH 333 0
DWIDTH 6 0
BBX 6 1 1 10
BITMAP
FC
ENDCHAR

STARTCHAR degree
ENCODING 176
SWIDTH 396 0
DWIDTH 8 0
BBX 6 6 1 7
BITMAP
78
CC
CC
CC
CC
78
ENDCHAR

STARTCHAR aogonek
ENCODING 177
SWIDTH 556 0
DWIDTH 11 0
BBX 11 11 1 -2
BITMAP
0EC0
3B80
7380
7380
E380
E700
E700
EF40
7380
0300
01E0
ENDCHAR

STARTCHAR ogonek
ENCODING 178
SWIDTH 333 0
DWIDTH 6 0
BBX 5 2 1 -2
BITMAP
C0
78
ENDCHAR

STARTCHAR rcommaaccent
ENCODING 179
SWIDTH 389 0
DWIDTH 7 0
BBX 8 14 0 -5
BITMAP
1B
FB
3C
38
38
70
70
70
70
00
60
60
40
80
ENDCHAR

STARTCHAR acute
ENCODING 180
SWIDTH 333 0
DWIDTH 6 0
BBX 4 2 2 10
BITMAP
70
C0
ENDCHAR

STARTCHAR itilde
ENCODING 181
SWIDTH 333 0
DWIDTH 6 0
BBX 7 12 0 0
BITMAP
1A
2C
00
18
F8
38
38
38
70
70
74
38
ENDCHAR

STARTCHAR lcommaaccent
ENCODING 182
SWIDTH 333 0
DWIDTH 6 0
BBX 5 19 1 -5
BITMAP
18
F8
38
38
38
70
70
70
70
E0
E0
E0
E8
70
00
60
60
40
80
ENDCHAR

STARTCHAR caron
ENCODING 183
SWIDTH 333 0
DWIDTH 6 0
BBX 6 2 1 10
BITMAP
CC
78
ENDCHAR

STARTCHAR commaaccent
ENCODING 184
SWIDTH 333 0
DWIDTH 6 0
BBX 3 4 1 -5
BITMAP
60
60
40
80
ENDCHAR

STARTCHAR scaron
ENCODING 185
SWIDTH 444 0
DWIDTH 8 0
BBX 9 12 0 0
BITMAP
1980
0F00
0000
1F00
3100
7100
7800
3C00
1E00
8E00
8C00
F800
ENDCHAR

STARTCHAR emacron
ENCODING 186
SWIDTH 444 0
DWIDTH 9 0
BBX 8 11 1 0
BITMAP
3F
00
1E
37
67
E6
FC
E0
E0
F2
7C
ENDCHAR

STARTCHAR gcommaaccent
ENCODING 187
SWIDTH 500 0
DWIDTH 10 0
BBX 12 19 0 -5
BITMAP
0080
0100
0300
0300
0000
0FB0
19C0
39C0
39C0
3980
1E00
0C00
1800
3E00
7700
E380
C380
E700
7E00
ENDCHAR

STARTCHAR afii253
ENCODING 188
SWIDTH 278 0
DWIDTH 7 0
BBX 9 13 -1 0
BITMAP
0200
0600
0E00
0E00
7F80
1C00
1C00
FF00
3800
3800
3800
3A00
1C00
ENDCHAR

STARTCHAR afii238
ENCODING 189
SWIDTH 775 0
DWIDTH 15 0
BBX 14 13 1 0
BITMAP
3EF0
0F38
0E1C
0E1C
0E1C
1C1C
1C1C
1C38
1C38
3830
3870
3960
FDC0
ENDCHAR

STARTCHAR zcaron
ENCODING 190
SWIDTH 500 0
DWIDTH 9 0
BBX 9 12 0 0
BITMAP
1980
0F00
0000
3E80
5F00
0300
0600
0C00
1800
3000
7D00
BE00
ENDCHAR

STARTCHAR afii254
ENCODING 191
SWIDTH 477 0
DWIDTH 9 0
BBX 9 13 0 -4
BITMAP
7B00
3F80
3B80
7380
7380
7380
E380
E700
E700
0600
0E00
2C00
3800
ENDCHAR

STARTCHAR Amacron
ENCODING 192
SWIDTH 722 0
DWIDTH 14 0
BBX 15 15 -1 0
BITMAP
01F8
0000
0060
00E0
00E0
01F0
0170
0270
0470
0FF0
0838
1038
1038
2038
F8FE
ENDCHAR

STARTCHAR Aacute
ENCODING 193
SWIDTH 722 0
DWIDTH 14 0
BBX 15 16 -1 0
BITMAP
0038
0060
0000
0060
00E0
00E0
01F0
0170
0270
0470
0FF0
0838
1038
1038
2038
F8FE
ENDCHAR

STARTCHAR Acircumflex
ENCODING 194
SWIDTH 722 0
DWIDTH 14 0
BBX 15 16 -1 0
BITMAP
0078
00CC
0000
0060
00E0
00E0
01F0
0170
0270
0470
0FF0
0838
1038
1038
2038
F8FE
ENDCHAR

STARTCHAR Atilde
ENCODING 195
SWIDTH 722 0
DWIDTH 14 0
BBX 15 16 -1 0
BITMAP
0068
00B0
0000
0060
00E0
00E0
01F0
0170
0270
0470
0FF0
0838
1038
1038
2038
F8FE
ENDCHAR

STARTCHAR Adieresis
ENCODING 196
SWIDTH 722 0
DWIDTH 14 0
BBX 15 16 -1 0
BITMAP
0198
0198
0000
0060
00E0
00E0
01F0
0170
0270
0470
0FF0
0838
1038
1038
2038
F8FE
ENDCHAR

STARTCHAR Aring
ENCODING 197
SWIDTH 722 0
DWIDTH 14 0
BBX 15 17 -1 0
BITMAP
0060
0090
0060
0000
0060
00E0
00E0
01F0
0170
0270
0470
0FF0
0838
1038
1038
2038
F8FE
ENDCHAR

STARTCHAR AE
ENCODING 198
SWIDTH 944 0
DWIDTH 18 0
BBX 18 13 0 0
BITMAP
03FFC0
00B840
013840
023800
027000
047000
047F00
0FF000
107000
10E080
20E080
20E100
FBFF00
ENDCHAR

STARTCHAR Iogonek
ENCODING 199
SWIDTH 389 0
DWIDTH 7 0
BBX 9 15 -1 -2
BITMAP
3F80
0E00
0E00
0E00
1C00
1C00
1C00
1C00
1C00
3800
3800
3800
FE00
3000
1E00
ENDCHAR

STARTCHAR Ccaron
ENCODING 200
SWIDTH 685 0
DWIDTH 13 0
BBX 12 16 1 0
BITMAP
0660
03C0
0000
07F0
1C20
3020
7020
E000
E000
E000
E000
E000
E000
F000
7840
1F80
ENDCHAR

STARTCHAR Eacute
ENCODING 201
SWIDTH 611 0
DWIDTH 12 0
BBX 12 16 0 0
BITMAP
01C0
0300
0000
3FF0
0E10
0E10
0E00
1C00
1C00
1F80
1C00
1C00
3820
3820
3840
FFC0
ENDCHAR

STARTCHAR Eogonek
ENCODING 202
SWIDTH 611 0
DWIDTH 12 0
BBX 12 15 0 -2
BITMAP
3FF0
0E10
0E10
0E00
1C00
1C00
1F80
1C00
1C00
3820
3820
3840
FFC0
0300
01E0
ENDCHAR

STARTCHAR Edieresis
ENCODING 203
SWIDTH 611 0
DWIDTH 12 0
BBX 12 16 0 0
BITMAP
0CC0
0CC0
0000
3FF0
0E10
0E10
0E00
1C00
1C00
1F80
1C00
1C00
3820
3820
3840
FFC0
ENDCHAR

STARTCHAR Edotaccent
ENCODING 204
SWIDTH 611 0
DWIDTH 12 0
BBX 12 16 0 0
BITMAP
0180
0180
0000
3FF0
0E10
0E10
0E00
1C00
1C00
1F80
1C00
1C00
3820
3820
3840
FFC0
ENDCHAR

STARTCHAR Iacute
ENCODING 205
SWIDTH 389 0
DWIDTH 7 0
BBX 9 16 -1 0
BITMAP
0380
0600
0000
3F80
0E00
0E00
0E00
1C00
1C00
1C00
1C00
1C00
3800
3800
3800
FE00
ENDCHAR

STARTCHAR Icircumflex
ENCODING 206
SWIDTH 389 0
DWIDTH 7 0
BBX 10 16 -1 0
BITMAP
0780
0CC0
0000
3F80
0E00
0E00
0E00
1C00
1C00
1C00
1C00
1C00
3800
3800
3800
FE00
ENDCHAR

STARTCHAR Imacron
ENCODING 207
SWIDTH 389 0
DWIDTH 7 0
BBX 10 15 -1 0
BITMAP
0FC0
0000
3F80
0E00
0E00
0E00
1C00
1C00
1C00
1C00
1C00
3800
3800
3800
FE00
ENDCHAR

STARTCHAR Eth
ENCODING 208
SWIDTH 778 0
DWIDTH 15 0
BBX 15 13 0 0
BITMAP
3FF8
0E1C
0E0E
0E0E
1C0E
1C0E
7F8E
1C0E
1C0C
381C
3818
3830
FFC0
ENDCHAR

STARTCHAR Ncommaaccent
ENCODING 209
SWIDTH 778 0
DWIDTH 15 0
BBX 17 18 -1 -5
BITMAP
3C0F80
0E0200
0E0200
0F0200
138400
138400
11C400
10E400
20E800
207800
203800
203800
F81800
000000
030000
030000
020000
040000
ENDCHAR

STARTCHAR Omacron
ENCODING 210
SWIDTH 833 0
DWIDTH 16 0
BBX 14 15 1 0
BITMAP
07E0
0000
07E0
1C38
301C
701C
601C
E01C
E01C
E01C
E018
E038
E030
70E0
1F80
ENDCHAR

STARTCHAR Kcommaaccent
ENCODING 211
SWIDTH 722 0
DWIDTH 14 0
BBX 15 18 0 -5
BITMAP
3FBE
0E18
0E30
0E60
1CC0
1D80
1F00
1F80
1D80
39C0
38E0
3870
FE78
0000
0600
0600
0400
0800
ENDCHAR

STARTCHAR Ocircumflex
ENCODING 212
SWIDTH 833 0
DWIDTH 16 0
BBX 14 16 1 0
BITMAP
01E0
0330
0000
07E0
1C38
301C
701C
601C
E01C
E01C
E01C
E018
E038
E030
70E0
1F80
ENDCHAR

STARTCHAR Otilde
ENCODING 213
SWIDTH 833 0
DWIDTH 16 0
BBX 14 16 1 0
BITMAP
01A0
02C0
0000
07E0
1C38
301C
701C
601C
E01C
E01C
E01C
E018
E038
E030
70E0
1F80
ENDCHAR

STARTCHAR Odieresis
ENCODING 214
SWIDTH 833 0
DWIDTH 16 0
BBX 14 16 1 0
BITMAP
0660
0660
0000
07E0
1C38
301C
701C
601C
E01C
E01C
E01C
E018
E038
E030
70E0
1F80
ENDCHAR

STARTCHAR multiply
ENCODING 215
SWIDTH 606 0
DWIDTH 12 0
BBX 8 7 2 3
BITMAP
C3
66
3C
18
3C
66
C3
ENDCHAR

STARTCHAR Oslash
ENCODING 216
SWIDTH 833 0
DWIDTH 16 0
BBX 14 13 1 0
BITMAP
07E4
1C38
303C
705C
609C
E11C
E21C
E21C
E418
E838
F030
70E0
9F80
ENDCHAR

STARTCHAR Uogonek
ENCODING 217
SWIDTH 778 0
DWIDTH 15 0
BBX 15 15 1 -2
BITMAP
FEFE
3838
3838
3838
7070
7070
7070
7070
E070
E0E0
E0E0
71E0
3EF8
00C0
0078
ENDCHAR

STARTCHAR Uacute
ENCODING 218
SWIDTH 778 0
DWIDTH 15 0
BBX 15 16 1 0
BITMAP
01C0
0300
0000
FEFE
3838
3838
3838
7070
7070
7070
7070
E070
E0E0
E0E0
71E0
3EF8
ENDCHAR

STARTCHAR Ucircumflex
ENCODING 219
SWIDTH 778 0
DWIDTH 15 0
BBX 15 16 1 0
BITMAP
03C0
0660
0000
FEFE
3838
3838
3838
7070
7070
7070
7070
E070
E0E0
E0E0
71E0
3EF8
ENDCHAR

STARTCHAR Udieresis
ENCODING 220
SWIDTH 778 0
DWIDTH 15 0
BBX 15 16 1 0
BITMAP
0660
0660
0000
FEFE
3838
3838
3838
7070
7070
7070
7070
E070
E0E0
E0E0
71E0
3EF8
ENDCHAR

STARTCHAR Utilde
ENCODING 221
SWIDTH 778 0
DWIDTH 15 0
BBX 15 16 1 0
BITMAP
01A0
02C0
0000
FEFE
3838
3838
3838
7070
7070
7070
7070
E070
E0E0
E0E0
71E0
3EF8
ENDCHAR

STARTCHAR Umacron
ENCODING 222
SWIDTH 778 0
DWIDTH 15 0
BBX 15 15 1 0
BITMAP
07E0
0000
FEFE
3838
3838
3838
7070
7070
7070
7070
E070
E0E0
E0E0
71E0
3EF8
ENDCHAR

STARTCHAR germandbls
ENCODING 223
SWIDTH 556 0
DWIDTH 11 0
BBX 14 19 -3 -5
BITMAP
0078
00DC
019C
039C
0398
0F30
0760
0760
0770
0738
0618
0E18
0E30
0EE0
0C00
0C00
1800
3000
C000
ENDCHAR

STARTCHAR amacron
ENCODING 224
SWIDTH 556 0
DWIDTH 11 0
BBX 10 11 1 0
BITMAP
1F80
0000
0EC0
3B80
7380
7380
E380
E700
E700
EF40
7380
ENDCHAR

STARTCHAR aacute
ENCODING 225
SWIDTH 556 0
DWIDTH 11 0
BBX 10 12 1 0
BITMAP
0380
0600
0000
0EC0
3B80
7380
7380
E380
E700
E700
EF40
7380
ENDCHAR

STARTCHAR acircumflex
ENCODING 226
SWIDTH 556 0
DWIDTH 11 0
BBX 10 12 1 0
BITMAP
0780
0CC0
0000
0EC0
3B80
7380
7380
E380
E700
E700
EF40
7380
ENDCHAR

STARTCHAR atilde
ENCODING 227
SWIDTH 556 0
DWIDTH 11 0
BBX 10 12 1 0
BITMAP
0680
0B00
0000
0EC0
3B80
7380
7380
E380
E700
E700
EF40
7380
ENDCHAR

STARTCHAR adieresis
ENCODING 228
SWIDTH 556 0
DWIDTH 11 0
BBX 10 12 1 0
BITMAP
0CC0
0CC0
0000
0EC0
3B80
7380
7380
E380
E700
E700
EF40
7380
ENDCHAR

STARTCHAR aring
ENCODING 229
SWIDTH 556 0
DWIDTH 11 0
BBX 10 13 1 0
BITMAP
0600
0900
0600
0000
0EC0
3B80
7380
7380
E380
E700
E700
EF40
7380
ENDCHAR

STARTCHAR ae
ENCODING 230
SWIDTH 738 0
DWIDTH 14 0
BBX 13 9 1 0
BITMAP
3CF0
4FB8
0738
0730
3FC0
6700
E700
E710
79E0
ENDCHAR

STARTCHAR iogonek
ENCODING 231
SWIDTH 333 0
DWIDTH 6 0
BBX 7 16 0 -2
BITMAP
1C
1C
1C
00
00
18
F8
38
38
38
70
70
74
38
30
1E
ENDCHAR

STARTCHAR ccaron
ENCODING 232
SWIDTH 444 0
DWIDTH 9 0
BBX 9 12 1 0
BITMAP
1980
0F00
0000
0F80
3900
7100
6000
E000
E000
E000
7200
3C00
ENDCHAR

STARTCHAR eacute
ENCODING 233
SWIDTH 444 0
DWIDTH 9 0
BBX 8 12 1 0
BITMAP
07
0C
00
1E
37
67
E6
FC
E0
E0
F2
7C
ENDCHAR

STARTCHAR eogonek
ENCODING 234
SWIDTH 444 0
DWIDTH 9 0
BBX 8 11 1 -2
BITMAP
1E
37
67
E6
FC
E0
E0
F2
7C
30
1E
ENDCHAR

STARTCHAR edieresis
ENCODING 235
SWIDTH 444 0
DWIDTH 9 0
BBX 8 12 1 0
BITMAP
33
33
00
1E
37
67
E6
FC
E0
E0
F2
7C
ENDCHAR

STARTCHAR edotaccent
ENCODING 236
SWIDTH 444 0
DWIDTH 9 0
BBX 8 12 1 0
BITMAP
0C
0C
00
1E
37
67
E6
FC
E0
E0
F2
7C
ENDCHAR

STARTCHAR iacute
ENCODING 237
SWIDTH 333 0
DWIDTH 6 0
BBX 7 12 0 0
BITMAP
0E
18
00
18
F8
38
38
38
70
70
74
38
ENDCHAR

STARTCHAR icircumflex
ENCODING 238
SWIDTH 333 0
DWIDTH 6 0
BBX 7 12 0 0
BITMAP
3C
66
00
18
F8
38
38
38
70
70
74
38
ENDCHAR

STARTCHAR imacron
ENCODING 239
SWIDTH 333 0
DWIDTH 6 0
BBX 7 11 0 0
BITMAP
7E
00
18
F8
38
38
38
70
70
74
38
ENDCHAR

STARTCHAR dcroat
ENCODING 240
SWIDTH 556 0
DWIDTH 11 0
BBX 11 14 1 0
BITMAP
00C0
07C0
01C0
0FE0
01C0
0F80
3B80
7380
6380
E700
E700
E700
EF40
7380
ENDCHAR

STARTCHAR ncommaaccent
ENCODING 241
SWIDTH 556 0
DWIDTH 11 0
BBX 11 14 0 -5
BITMAP
1B80
FDC0
39C0
39C0
39C0
7380
7380
73A0
71C0
0000
0C00
0C00
0800
1000
ENDCHAR

STARTCHAR omacron
ENCODING 242
SWIDTH 556 0
DWIDTH 11 0
BBX 9 11 1 0
BITMAP
1F80
0000
1F00
3380
6380
6380
E380
E300
E300
E600
7C00
ENDCHAR

STARTCHAR kcommaaccent
ENCODING 243
SWIDTH 556 0
DWIDTH 10 0
BBX 9 19 1 -5
BITMAP
1800
F800
3800
3800
3800
7180
7300
7400
7800
7C00
EC00
EE00
E680
E300
0000
3000
3000
2000
4000
ENDCHAR

STARTCHAR ocircumflex
ENCODING 244
SWIDTH 556 0
DWIDTH 11 0
BBX 9 12 1 0
BITMAP
0F00
1980
0000
1F00
3380
6380
6380
E380
E300
E300
E600
7C00
ENDCHAR

STARTCHAR otilde
ENCODING 245
SWIDTH 556 0
DWIDTH 11 0
BBX 9 12 1 0
BITMAP
0D00
1600
0000
1F00
3380
6380
6380
E380
E300
E300
E600
7C00
ENDCHAR

STARTCHAR odieresis
ENCODING 246
SWIDTH 556 0
DWIDTH 11 0
BBX 9 12 1 0
BITMAP
1980
1980
0000
1F00
3380
6380
6380
E380
E300
E300
E600
7C00
ENDCHAR

STARTCHAR divide
ENCODING 247
SWIDTH 606 0
DWIDTH 12 0
BBX 10 8 1 2
BITMAP
0C00
0C00
0000
FFC0
FFC0
0000
0C00
0C00
ENDCHAR

STARTCHAR oslash
ENCODING 248
SWIDTH 556 0
DWIDTH 11 0
BBX 9 9 1 0
BITMAP
1E80
3380
6380
6780
EB80
F300
E300
E600
BC00
ENDCHAR

STARTCHAR uogonek
ENCODING 249
SWIDTH 556 0
DWIDTH 11 0
BBX 11 11 0 -2
BITMAP
19C0
F9C0
39C0
39C0
7380
7380
7380
77A0
3BC0
0300
01E0
ENDCHAR

STARTCHAR uacute
ENCODING 250
SWIDTH 556 0
DWIDTH 11 0
BBX 11 12 0 0
BITMAP
0380
0600
0000
19C0
F9C0
39C0
39C0
7380
7380
7380
77A0
3BC0
ENDCHAR

STARTCHAR ucircumflex
ENCODING 251
SWIDTH 556 0
DWIDTH 11 0
BBX 11 12 0 0
BITMAP
0F00
1980
0000
19C0
F9C0
39C0
39C0
7380
7380
7380
77A0
3BC0
ENDCHAR

STARTCHAR udieresis
ENCODING 252
SWIDTH 556 0
DWIDTH 11 0
BBX 11 12 0 0
BITMAP
0CC0
0CC0
0000
19C0
F9C0
39C0
39C0
7380
7380
7380
77A0
3BC0
ENDCHAR

STARTCHAR utilde
ENCODING 253
SWIDTH 556 0
DWIDTH 11 0
BBX 11 12 0 0
BITMAP
0680
0B00
0000
19C0
F9C0
39C0
39C0
7380
7380
7380
77A0
3BC0
ENDCHAR

STARTCHAR umacron
ENCODING 254
SWIDTH 556 0
DWIDTH 11 0
BBX 11 11 0 0
BITMAP
0FC0
0000
19C0
F9C0
39C0
39C0
7380
7380
7380
77A0
3BC0
ENDCHAR

STARTCHAR dotaccent
ENCODING 255
SWIDTH 333 0
DWIDTH 6 0
BBX 2 2 2 10
BITMAP
C0
C0
ENDCHAR
ENDFONT
